<svg xmlns="http://www.w3.org/2000/svg" width="1440" height="900"><path d="M748,445L791,353L703,373Z" fill="#7babd0" stroke="#7babd0" stroke-width="1.51"/><path d="M703,373L666,513L748,445Z" fill="#77aad0" stroke="#77aad0" stroke-width="1.51"/><path d="M722,281L660,344L703,373Z" fill="#8bb2d4" stroke="#8bb2d4" stroke-width="1.51"/><path d="M791,353L722,281L703,373Z" fill="#86afd3" stroke="#86afd3" stroke-width="1.51"/><path d="M748,445L838,475L791,353Z" fill="#70a6cd" stroke="#70a6cd" stroke-width="1.51"/><path d="M791,353L839,273L722,281Z" fill="#87afd3" stroke="#87afd3" stroke-width="1.51"/><path d="M918,356L839,273L791,353Z" fill="#7baad0" stroke="#7baad0" stroke-width="1.51"/><path d="M592,444L666,513L703,373Z" fill="#7dacd2" stroke="#7dacd2" stroke-width="1.51"/><path d="M748,445L832,547L838,475Z" fill="#63a0ca" stroke="#63a0ca" stroke-width="1.51"/><path d="M666,513L689,535L748,445Z" fill="#6ea6cd" stroke="#6ea6cd" stroke-width="1.51"/><path d="M838,475L918,356L791,353Z" fill="#6fa5cd" stroke="#6fa5cd" stroke-width="1.51"/><path d="M660,344L592,444L703,373Z" fill="#88b0d4" stroke="#88b0d4" stroke-width="1.51"/><path d="M626,625L717,654L689,535Z" fill="#5f9ec8" stroke="#5f9ec8" stroke-width="1.51"/><path d="M689,535L832,547L748,445Z" fill="#65a2cb" stroke="#65a2cb" stroke-width="1.51"/><path d="M838,475L936,445L918,356Z" fill="#63a0ca" stroke="#63a0ca" stroke-width="1.51"/><path d="M660,344L559,427L592,444Z" fill="#8ab1d4" stroke="#8ab1d4" stroke-width="1.51"/><path d="M722,281L618,264L660,344Z" fill="#95b6d7" stroke="#95b6d7" stroke-width="1.51"/><path d="M708,182L618,264L722,281Z" fill="#9bb8d8" stroke="#9bb8d8" stroke-width="1.51"/><path d="M914,539L936,445L838,475Z" fill="#579cc7" stroke="#579cc7" stroke-width="1.51"/><path d="M515,513L626,625L666,513Z" fill="#71a6cd" stroke="#71a6cd" stroke-width="1.51"/><path d="M555,329L559,427L660,344Z" fill="#92b4d6" stroke="#92b4d6" stroke-width="1.51"/><path d="M918,356L913,274L839,273Z" fill="#7ba9cf" stroke="#7ba9cf" stroke-width="1.51"/><path d="M823,186L708,182L722,281Z" fill="#98b7d7" stroke="#98b7d7" stroke-width="1.51"/><path d="M991,260L913,274L918,356Z" fill="#76a6ce" stroke="#76a6ce" stroke-width="1.51"/><path d="M618,264L555,329L660,344Z" fill="#99b7d8" stroke="#99b7d8" stroke-width="1.51"/><path d="M823,186L722,281L839,273Z" fill="#8eb2d5" stroke="#8eb2d5" stroke-width="1.51"/><path d="M897,204L823,186L839,273Z" fill="#8cb1d4" stroke="#8cb1d4" stroke-width="1.51"/><path d="M832,547L914,539L838,475Z" fill="#559bc6" stroke="#559bc6" stroke-width="1.51"/><path d="M936,445L980,417L918,356Z" fill="#619fc9" stroke="#619fc9" stroke-width="1.51"/><path d="M976,569L980,417L936,445Z" fill="#5198c5" stroke="#5198c5" stroke-width="1.51"/><path d="M991,260L897,204L913,274Z" fill="#7faad0" stroke="#7faad0" stroke-width="1.51"/><path d="M913,274L897,204L839,273Z" fill="#84add2" stroke="#84add2" stroke-width="1.51"/><path d="M618,264L531,296L555,329Z" fill="#a0bad9" stroke="#a0bad9" stroke-width="1.51"/><path d="M412,330L464,479L559,427Z" fill="#97b6d7" stroke="#97b6d7" stroke-width="1.51"/><path d="M544,151L531,296L618,264Z" fill="#a9bedc" stroke="#a9bedc" stroke-width="1.51"/><path d="M708,182L649,164L618,264Z" fill="#a3bcda" stroke="#a3bcda" stroke-width="1.51"/><path d="M734,71L649,164L708,182Z" fill="#a8bfdc" stroke="#a8bfdc" stroke-width="1.51"/><path d="M689,535L797,653L832,547Z" fill="#559bc7" stroke="#559bc7" stroke-width="1.51"/><path d="M832,547L902,635L914,539Z" fill="#4695c3" stroke="#4695c3" stroke-width="1.51"/><path d="M626,625L689,535L666,513Z" fill="#69a2cb" stroke="#69a2cb" stroke-width="1.51"/><path d="M717,654L797,653L689,535Z" fill="#5699c6" stroke="#5699c6" stroke-width="1.51"/><path d="M515,513L666,513L592,444Z" fill="#7dabd1" stroke="#7dabd1" stroke-width="1.51"/><path d="M559,427L515,513L592,444Z" fill="#86afd3" stroke="#86afd3" stroke-width="1.51"/><path d="M464,479L515,513L559,427Z" fill="#89b0d4" stroke="#89b0d4" stroke-width="1.51"/><path d="M1029,365L991,260L918,356Z" fill="#6fa2cb" stroke="#6fa2cb" stroke-width="1.51"/><path d="M980,417L1029,365L918,356Z" fill="#659ec9" stroke="#659ec9" stroke-width="1.51"/><path d="M1094,481L1029,365L980,417Z" fill="#5997c5" stroke="#5997c5" stroke-width="1.51"/><path d="M823,186L774,111L708,182Z" fill="#9eb9d9" stroke="#9eb9d9" stroke-width="1.51"/><path d="M891,105L774,111L823,186Z" fill="#9ab8d8" stroke="#9ab8d8" stroke-width="1.51"/><path d="M891,105L823,186L897,204Z" fill="#92b4d5" stroke="#92b4d5" stroke-width="1.51"/><path d="M914,539L976,569L936,445Z" fill="#4a96c4" stroke="#4a96c4" stroke-width="1.51"/><path d="M902,635L976,569L914,539Z" fill="#3c92c1" stroke="#3c92c1" stroke-width="1.51"/><path d="M797,653L902,635L832,547Z" fill="#4594c3" stroke="#4594c3" stroke-width="1.51"/><path d="M412,330L559,427L555,329Z" fill="#9cb9d8" stroke="#9cb9d8" stroke-width="1.51"/><path d="M515,513L508,640L626,625Z" fill="#71a5cd" stroke="#71a5cd" stroke-width="1.51"/><path d="M797,653L826,690L902,635Z" fill="#418fc0" stroke="#418fc0" stroke-width="1.51"/><path d="M711,709L826,690L797,653Z" fill="#498fc1" stroke="#498fc1" stroke-width="1.51"/><path d="M711,709L797,653L717,654Z" fill="#4f93c3" stroke="#4f93c3" stroke-width="1.51"/><path d="M1094,481L1081,328L1029,365Z" fill="#5e96c5" stroke="#5e96c5" stroke-width="1.51"/><path d="M902,635L986,599L976,569Z" fill="#348ec0" stroke="#348ec0" stroke-width="1.51"/><path d="M1056,638L986,599L1020,741Z" fill="#2983b9" stroke="#2983b9" stroke-width="1.51"/><path d="M991,140L891,105L897,204Z" fill="#8fb1d4" stroke="#8fb1d4" stroke-width="1.51"/><path d="M649,164L544,151L618,264Z" fill="#abc0dc" stroke="#abc0dc" stroke-width="1.51"/><path d="M531,296L412,330L555,329Z" fill="#a4bcdb" stroke="#a4bcdb" stroke-width="1.51"/><path d="M617,98L544,151L649,164Z" fill="#b2c3de" stroke="#b2c3de" stroke-width="1.51"/><path d="M991,260L991,140L897,204Z" fill="#85abd0" stroke="#85abd0" stroke-width="1.51"/><path d="M1029,365L1048,266L991,260Z" fill="#72a0cb" stroke="#72a0cb" stroke-width="1.51"/><path d="M1081,328L1048,266L1029,365Z" fill="#6c9cc9" stroke="#6c9cc9" stroke-width="1.51"/><path d="M626,625L711,709L717,654Z" fill="#5997c5" stroke="#5997c5" stroke-width="1.51"/><path d="M638,741L711,709L626,625Z" fill="#5a95c4" stroke="#5a95c4" stroke-width="1.51"/><path d="M774,111L734,71L708,182Z" fill="#a5bedc" stroke="#a5bedc" stroke-width="1.51"/><path d="M752,17L734,71L774,111Z" fill="#a9c1dd" stroke="#a9c1dd" stroke-width="1.51"/><path d="M734,71L617,98L649,164Z" fill="#aec2de" stroke="#aec2de" stroke-width="1.51"/><path d="M1094,481L980,417L976,569Z" fill="#4c93c3" stroke="#4c93c3" stroke-width="1.51"/><path d="M464,479L461,561L515,513Z" fill="#86aed2" stroke="#86aed2" stroke-width="1.51"/><path d="M451,210L424,290L531,296Z" fill="#afc1de" stroke="#afc1de" stroke-width="1.51"/><path d="M464,479L369,568L461,561Z" fill="#88afd3" stroke="#88afd3" stroke-width="1.51"/><path d="M1081,197L991,260L1048,266Z" fill="#7aa2cc" stroke="#7aa2cc" stroke-width="1.51"/><path d="M1081,197L991,140L991,260Z" fill="#82a6cf" stroke="#82a6cf" stroke-width="1.51"/><path d="M424,290L412,330L531,296Z" fill="#abbfdc" stroke="#abbfdc" stroke-width="1.51"/><path d="M461,561L508,640L515,513Z" fill="#7ba9cf" stroke="#7ba9cf" stroke-width="1.51"/><path d="M986,599L1061,561L976,569Z" fill="#378cbf" stroke="#378cbf" stroke-width="1.51"/><path d="M1056,638L1061,561L986,599Z" fill="#2f88bd" stroke="#2f88bd" stroke-width="1.51"/><path d="M1061,561L1094,481L976,569Z" fill="#3f8dbf" stroke="#3f8dbf" stroke-width="1.51"/><path d="M544,151L451,210L531,296Z" fill="#b2c2de" stroke="#b2c2de" stroke-width="1.51"/><path d="M528,107L451,210L544,151Z" fill="#bac7e1" stroke="#bac7e1" stroke-width="1.51"/><path d="M617,98L528,107L544,151Z" fill="#b9c6e1" stroke="#b9c6e1" stroke-width="1.51"/><path d="M538,-5L528,107L617,98Z" fill="#becbe3" stroke="#becbe3" stroke-width="1.51"/><path d="M809,783L898,759L826,690Z" fill="#3885bb" stroke="#3885bb" stroke-width="1.51"/><path d="M536,703L638,741L626,625Z" fill="#6297c6" stroke="#6297c6" stroke-width="1.51"/><path d="M734,71L598,-19L617,98Z" fill="#b6c7e1" stroke="#b6c7e1" stroke-width="1.51"/><path d="M880,-5L752,17L774,111Z" fill="#a6c0dc" stroke="#a6c0dc" stroke-width="1.51"/><path d="M880,-5L774,111L891,105Z" fill="#9fbbda" stroke="#9fbbda" stroke-width="1.51"/><path d="M508,640L536,703L626,625Z" fill="#6a9dc9" stroke="#6a9dc9" stroke-width="1.51"/><path d="M477,742L536,703L508,640Z" fill="#6e9bc9" stroke="#6e9bc9" stroke-width="1.51"/><path d="M1172,256L1081,197L1048,266Z" fill="#779eca" stroke="#779eca" stroke-width="1.51"/><path d="M1172,256L1048,266L1081,328Z" fill="#709bc8" stroke="#709bc8" stroke-width="1.51"/><path d="M991,140L956,67L891,105Z" fill="#91b3d5" stroke="#91b3d5" stroke-width="1.51"/><path d="M991,26L956,67L991,140Z" fill="#92b2d5" stroke="#92b2d5" stroke-width="1.51"/><path d="M1204,513L1183,475L1094,481Z" fill="#4388bd" stroke="#4388bd" stroke-width="1.51"/><path d="M1020,741L986,599L902,635Z" fill="#2d87bb" stroke="#2d87bb" stroke-width="1.51"/><path d="M898,759L902,635L826,690Z" fill="#3889bd" stroke="#3889bd" stroke-width="1.51"/><path d="M809,783L826,690L711,709Z" fill="#458bbf" stroke="#458bbf" stroke-width="1.51"/><path d="M708,788L809,783L711,709Z" fill="#4989bd" stroke="#4989bd" stroke-width="1.51"/><path d="M638,741L708,788L711,709Z" fill="#518dc1" stroke="#518dc1" stroke-width="1.51"/><path d="M608,811L708,788L638,741Z" fill="#558cbd" stroke="#558cbd" stroke-width="1.51"/><path d="M328,371L358,454L412,330Z" fill="#a7bedb" stroke="#a7bedb" stroke-width="1.51"/><path d="M412,330L358,454L464,479Z" fill="#9cb9d9" stroke="#9cb9d9" stroke-width="1.51"/><path d="M461,561L428,641L508,640Z" fill="#79a6ce" stroke="#79a6ce" stroke-width="1.51"/><path d="M354,282L412,330L424,290Z" fill="#b1c2de" stroke="#b1c2de" stroke-width="1.51"/><path d="M369,568L428,641L461,561Z" fill="#80abd0" stroke="#80abd0" stroke-width="1.51"/><path d="M451,210L354,282L424,290Z" fill="#b6c4df" stroke="#b6c4df" stroke-width="1.51"/><path d="M376,165L354,282L451,210Z" fill="#bdc7e1" stroke="#bdc7e1" stroke-width="1.51"/><path d="M956,67L880,-5L891,105Z" fill="#9ab9d8" stroke="#9ab9d8" stroke-width="1.51"/><path d="M358,454L369,568L464,479Z" fill="#91b3d5" stroke="#91b3d5" stroke-width="1.51"/><path d="M880,-5L774,-32L752,17Z" fill="#abc3de" stroke="#abc3de" stroke-width="1.51"/><path d="M752,17L598,-19L734,71Z" fill="#b3c7e1" stroke="#b3c7e1" stroke-width="1.51"/><path d="M354,282L328,371L412,330Z" fill="#b0c2de" stroke="#b0c2de" stroke-width="1.51"/><path d="M248,543L272,596L369,568Z" fill="#90b2d5" stroke="#90b2d5" stroke-width="1.51"/><path d="M1094,481L1181,386L1081,328Z" fill="#5992c3" stroke="#5992c3" stroke-width="1.51"/><path d="M1183,475L1181,386L1094,481Z" fill="#4d8cc0" stroke="#4d8cc0" stroke-width="1.51"/><path d="M956,67L991,26L880,-5Z" fill="#99b8d8" stroke="#99b8d8" stroke-width="1.51"/><path d="M1054,24L991,26L991,140Z" fill="#92b0d4" stroke="#92b0d4" stroke-width="1.51"/><path d="M1054,24L991,140L1112,74Z" fill="#8eacd2" stroke="#8eacd2" stroke-width="1.51"/><path d="M1204,513L1094,481L1061,561Z" fill="#3f89bd" stroke="#3f89bd" stroke-width="1.51"/><path d="M392,83L376,165L451,210Z" fill="#c5cbe3" stroke="#c5cbe3" stroke-width="1.51"/><path d="M700,-60L598,-19L752,17Z" fill="#b8cbe3" stroke="#b8cbe3" stroke-width="1.51"/><path d="M898,759L1020,741L902,635Z" fill="#2983ba" stroke="#2983ba" stroke-width="1.51"/><path d="M1153,647L1204,513L1061,561Z" fill="#2e83ba" stroke="#2e83ba" stroke-width="1.51"/><path d="M993,825L1020,741L898,759Z" fill="#217bb3" stroke="#217bb3" stroke-width="1.51"/><path d="M1181,386L1172,256L1081,328Z" fill="#6795c5" stroke="#6795c5" stroke-width="1.51"/><path d="M392,83L451,210L528,107Z" fill="#c2cae3" stroke="#c2cae3" stroke-width="1.51"/><path d="M354,282L283,263L328,371Z" fill="#b7c5e0" stroke="#b7c5e0" stroke-width="1.51"/><path d="M536,703L608,811L638,741Z" fill="#5e91c3" stroke="#5e91c3" stroke-width="1.51"/><path d="M840,904L884,827L809,783Z" fill="#367eb0" stroke="#367eb0" stroke-width="1.51"/><path d="M529,812L608,811L536,703Z" fill="#6291c0" stroke="#6291c0" stroke-width="1.51"/><path d="M368,721L477,742L428,641Z" fill="#779eca" stroke="#779eca" stroke-width="1.51"/><path d="M428,641L477,742L508,640Z" fill="#739fcb" stroke="#739fcb" stroke-width="1.51"/><path d="M598,-19L538,-5L617,98Z" fill="#bfcde4" stroke="#bfcde4" stroke-width="1.51"/><path d="M809,783L884,827L898,759Z" fill="#3380b5" stroke="#3380b5" stroke-width="1.51"/><path d="M690,881L809,783L708,788Z" fill="#4785b6" stroke="#4785b6" stroke-width="1.51"/><path d="M774,-32L700,-60L752,17Z" fill="#b2c8e1" stroke="#b2c8e1" stroke-width="1.51"/><path d="M598,-19L544,-65L538,-5Z" fill="#c6d1e6" stroke="#c6d1e6" stroke-width="1.51"/><path d="M838,-120L700,-60L774,-32Z" fill="#b2c8e1" stroke="#b2c8e1" stroke-width="1.51"/><path d="M838,-120L774,-32L880,-5Z" fill="#aac4de" stroke="#aac4de" stroke-width="1.51"/><path d="M369,568L378,660L428,641Z" fill="#80a8cf" stroke="#80a8cf" stroke-width="1.51"/><path d="M368,721L378,660L262,707Z" fill="#81a2cd" stroke="#81a2cd" stroke-width="1.51"/><path d="M1285,465L1270,369L1181,386Z" fill="#5389ba" stroke="#5389ba" stroke-width="1.51"/><path d="M1281,239L1206,151L1172,256Z" fill="#7697c3" stroke="#7697c3" stroke-width="1.51"/><path d="M1153,647L1061,561L1056,638Z" fill="#2882ba" stroke="#2882ba" stroke-width="1.51"/><path d="M1020,741L1083,730L1056,638Z" fill="#1f7cb6" stroke="#1f7cb6" stroke-width="1.51"/><path d="M1058,825L1083,730L1020,741Z" fill="#1775b1" stroke="#1775b1" stroke-width="1.51"/><path d="M1083,730L1153,647L1056,638Z" fill="#1f7cb6" stroke="#1f7cb6" stroke-width="1.51"/><path d="M991,26L929,-72L880,-5Z" fill="#9ebcda" stroke="#9ebcda" stroke-width="1.51"/><path d="M1112,74L991,140L1081,197Z" fill="#88a7cf" stroke="#88a7cf" stroke-width="1.51"/><path d="M538,-5L422,51L528,107Z" fill="#c6cfe5" stroke="#c6cfe5" stroke-width="1.51"/><path d="M285,186L283,263L354,282Z" fill="#c2cae2" stroke="#c2cae2" stroke-width="1.51"/><path d="M422,51L392,83L528,107Z" fill="#c8cfe5" stroke="#c8cfe5" stroke-width="1.51"/><path d="M608,811L690,881L708,788Z" fill="#5188b7" stroke="#5188b7" stroke-width="1.51"/><path d="M477,742L529,812L536,703Z" fill="#6994c4" stroke="#6994c4" stroke-width="1.51"/><path d="M479,807L529,812L477,742Z" fill="#6a93c0" stroke="#6a93c0" stroke-width="1.51"/><path d="M1148,80L1112,74L1081,197Z" fill="#88a5ce" stroke="#88a5ce" stroke-width="1.51"/><path d="M272,596L378,660L369,568Z" fill="#87add1" stroke="#87add1" stroke-width="1.51"/><path d="M285,186L354,282L376,165Z" fill="#c3cae3" stroke="#c3cae3" stroke-width="1.51"/><path d="M625,929L690,881L608,811Z" fill="#5385b2" stroke="#5385b2" stroke-width="1.51"/><path d="M957,911L993,825L884,827Z" fill="#2277aa" stroke="#2277aa" stroke-width="1.51"/><path d="M884,827L993,825L898,759Z" fill="#267cb1" stroke="#267cb1" stroke-width="1.51"/><path d="M960,-128L929,-72L1062,-113Z" fill="#a1bddb" stroke="#a1bddb" stroke-width="1.51"/><path d="M529,812L542,879L608,811Z" fill="#608cb9" stroke="#608cb9" stroke-width="1.51"/><path d="M368,721L479,807L477,742Z" fill="#7197c6" stroke="#7197c6" stroke-width="1.51"/><path d="M598,-87L598,-19L700,-60Z" fill="#c0cfe5" stroke="#c0cfe5" stroke-width="1.51"/><path d="M598,-87L544,-65L598,-19Z" fill="#c5d2e7" stroke="#c5d2e7" stroke-width="1.51"/><path d="M538,-5L458,-21L422,51Z" fill="#ccd3e8" stroke="#ccd3e8" stroke-width="1.51"/><path d="M1112,74L1208,26L1054,24Z" fill="#8ea9d1" stroke="#8ea9d1" stroke-width="1.51"/><path d="M1062,-113L929,-72L991,26Z" fill="#9db9d9" stroke="#9db9d9" stroke-width="1.51"/><path d="M1206,151L1148,80L1081,197Z" fill="#83a0cc" stroke="#83a0cc" stroke-width="1.51"/><path d="M838,-120L598,-87L700,-60Z" fill="#b9cde3" stroke="#b9cde3" stroke-width="1.51"/><path d="M378,660L368,721L428,641Z" fill="#7ca2cd" stroke="#7ca2cd" stroke-width="1.51"/><path d="M238,453L358,454L328,371Z" fill="#a6bddb" stroke="#a6bddb" stroke-width="1.51"/><path d="M544,-65L458,-21L538,-5Z" fill="#cbd3e7" stroke="#cbd3e7" stroke-width="1.51"/><path d="M422,51L335,-3L392,83Z" fill="#d2d4e8" stroke="#d2d4e8" stroke-width="1.51"/><path d="M283,263L246,369L328,371Z" fill="#b6c5df" stroke="#b6c5df" stroke-width="1.51"/><path d="M392,83L285,186L376,165Z" fill="#cbcee5" stroke="#cbcee5" stroke-width="1.51"/><path d="M283,263L199,348L246,369Z" fill="#bac8e1" stroke="#bac8e1" stroke-width="1.51"/><path d="M238,57L285,186L392,83Z" fill="#d3d3e7" stroke="#d3d3e7" stroke-width="1.51"/><path d="M1293,552L1285,465L1204,513Z" fill="#3c81b3" stroke="#3c81b3" stroke-width="1.51"/><path d="M1083,730L1139,728L1153,647Z" fill="#1676b3" stroke="#1676b3" stroke-width="1.51"/><path d="M1166,802L1139,728L1083,730Z" fill="#0a71b0" stroke="#0a71b0" stroke-width="1.51"/><path d="M1270,369L1172,256L1181,386Z" fill="#6290bf" stroke="#6290bf" stroke-width="1.51"/><path d="M1172,256L1206,151L1081,197Z" fill="#7b9cc9" stroke="#7b9cc9" stroke-width="1.51"/><path d="M1285,465L1181,386L1183,475Z" fill="#4d89bb" stroke="#4d89bb" stroke-width="1.51"/><path d="M1285,465L1183,475L1204,513Z" fill="#4385b8" stroke="#4385b8" stroke-width="1.51"/><path d="M929,-72L838,-120L880,-5Z" fill="#a6c2dd" stroke="#a6c2dd" stroke-width="1.51"/><path d="M246,369L238,453L328,371Z" fill="#aec1dd" stroke="#aec1dd" stroke-width="1.51"/><path d="M690,881L840,904L809,783Z" fill="#3f80b0" stroke="#3f80b0" stroke-width="1.51"/><path d="M248,543L369,568L358,454Z" fill="#95b5d6" stroke="#95b5d6" stroke-width="1.51"/><path d="M238,453L248,543L358,454Z" fill="#9fbad9" stroke="#9fbad9" stroke-width="1.51"/><path d="M993,825L1058,825L1020,741Z" fill="#1a75af" stroke="#1a75af" stroke-width="1.51"/><path d="M957,911L1058,825L993,825Z" fill="#1c73a8" stroke="#1c73a8" stroke-width="1.51"/><path d="M479,807L542,879L529,812Z" fill="#658eba" stroke="#658eba" stroke-width="1.51"/><path d="M690,881L716,976L840,904Z" fill="#427ca7" stroke="#427ca7" stroke-width="1.51"/><path d="M444,932L542,879L479,807Z" fill="#668cb7" stroke="#668cb7" stroke-width="1.51"/><path d="M1230,668L1204,513L1153,647Z" fill="#237cb4" stroke="#237cb4" stroke-width="1.51"/><path d="M840,904L884,912L884,827Z" fill="#3079aa" stroke="#3079aa" stroke-width="1.51"/><path d="M888,1023L884,912L840,904Z" fill="#2d729f" stroke="#2d729f" stroke-width="1.51"/><path d="M1270,369L1281,239L1172,256Z" fill="#6a92bf" stroke="#6a92bf" stroke-width="1.51"/><path d="M1206,151L1208,26L1148,80Z" fill="#88a1cb" stroke="#88a1cb" stroke-width="1.51"/><path d="M1302,203L1360,233L1335,173Z" fill="#7492ba" stroke="#7492ba" stroke-width="1.51"/><path d="M1139,728L1230,668L1153,647Z" fill="#1776b1" stroke="#1776b1" stroke-width="1.51"/><path d="M1272,751L1230,668L1139,728Z" fill="#0f70ac" stroke="#0f70ac" stroke-width="1.51"/><path d="M542,879L625,929L608,811Z" fill="#5988b4" stroke="#5988b4" stroke-width="1.51"/><path d="M458,-21L335,-3L422,51Z" fill="#d2d6e9" stroke="#d2d6e9" stroke-width="1.51"/><path d="M544,-65L439,-66L458,-21Z" fill="#cfd6e9" stroke="#cfd6e9" stroke-width="1.51"/><path d="M598,-87L439,-66L544,-65Z" fill="#ccd5e9" stroke="#ccd5e9" stroke-width="1.51"/><path d="M328,-80L439,-66L598,-87Z" fill="#d4d8ea" stroke="#d4d8ea" stroke-width="1.51"/><path d="M246,369L169,427L238,453Z" fill="#aec3de" stroke="#aec3de" stroke-width="1.51"/><path d="M238,453L196,556L248,543Z" fill="#9ebad9" stroke="#9ebad9" stroke-width="1.51"/><path d="M144,272L199,348L283,263Z" fill="#c1cbe3" stroke="#c1cbe3" stroke-width="1.51"/><path d="M964,1012L957,911L884,912Z" fill="#206e9c" stroke="#206e9c" stroke-width="1.51"/><path d="M884,912L957,911L884,827Z" fill="#2877a8" stroke="#2877a8" stroke-width="1.51"/><path d="M929,-72L960,-128L838,-120Z" fill="#a6c2de" stroke="#a6c2de" stroke-width="1.51"/><path d="M1062,-113L991,26L1054,24Z" fill="#98b4d7" stroke="#98b4d7" stroke-width="1.51"/><path d="M1360,233L1281,239L1380,333Z" fill="#6a8eb8" stroke="#6a8eb8" stroke-width="1.51"/><path d="M1230,668L1293,552L1204,513Z" fill="#2a7db1" stroke="#2a7db1" stroke-width="1.51"/><path d="M285,186L144,272L283,263Z" fill="#c7cde5" stroke="#c7cde5" stroke-width="1.51"/><path d="M439,-66L335,-3L458,-21Z" fill="#d5d8ea" stroke="#d5d8ea" stroke-width="1.51"/><path d="M1148,80L1208,26L1112,74Z" fill="#8ba6cf" stroke="#8ba6cf" stroke-width="1.51"/><path d="M1281,239L1302,203L1206,151Z" fill="#7896c0" stroke="#7896c0" stroke-width="1.51"/><path d="M1347,456L1270,369L1285,465Z" fill="#4d85b4" stroke="#4d85b4" stroke-width="1.51"/><path d="M169,427L196,556L238,453Z" fill="#a5bfdc" stroke="#a5bfdc" stroke-width="1.51"/><path d="M248,543L196,556L272,596Z" fill="#95b6d6" stroke="#95b6d6" stroke-width="1.51"/><path d="M272,596L262,707L378,660Z" fill="#87a9d0" stroke="#87a9d0" stroke-width="1.51"/><path d="M1382,620L1351,560L1293,552Z" fill="#2977a9" stroke="#2977a9" stroke-width="1.51"/><path d="M1058,825L1166,802L1083,730Z" fill="#1070ad" stroke="#1070ad" stroke-width="1.51"/><path d="M1111,934L1166,802L1058,825Z" fill="#0d6ba4" stroke="#0d6ba4" stroke-width="1.51"/><path d="M1274,50L1208,26L1206,151Z" fill="#87a0c7" stroke="#87a0c7" stroke-width="1.51"/><path d="M368,721L344,835L479,807Z" fill="#7497c3" stroke="#7497c3" stroke-width="1.51"/><path d="M196,648L262,707L272,596Z" fill="#8cacd1" stroke="#8cacd1" stroke-width="1.51"/><path d="M199,348L169,427L246,369Z" fill="#b4c5e0" stroke="#b4c5e0" stroke-width="1.51"/><path d="M625,929L716,976L690,881Z" fill="#4c7ea8" stroke="#4c7ea8" stroke-width="1.51"/><path d="M1204,-105L1062,-113L1054,24Z" fill="#98b1d5" stroke="#98b1d5" stroke-width="1.51"/><path d="M1293,552L1347,456L1285,465Z" fill="#4080b1" stroke="#4080b1" stroke-width="1.51"/><path d="M1351,560L1347,456L1293,552Z" fill="#387dad" stroke="#387dad" stroke-width="1.51"/><path d="M625,929L627,978L716,976Z" fill="#4c7ba2" stroke="#4c7ba2" stroke-width="1.51"/><path d="M551,980L627,978L625,929Z" fill="#537da4" stroke="#537da4" stroke-width="1.51"/><path d="M551,980L625,929L542,879Z" fill="#5983ab" stroke="#5983ab" stroke-width="1.51"/><path d="M262,707L344,835L368,721Z" fill="#7e9dc9" stroke="#7e9dc9" stroke-width="1.51"/><path d="M262,707L292,847L344,835Z" fill="#7e9ac4" stroke="#7e9ac4" stroke-width="1.51"/><path d="M196,556L196,648L272,596Z" fill="#92b3d5" stroke="#92b3d5" stroke-width="1.51"/><path d="M112,602L196,648L196,556Z" fill="#95b5d7" stroke="#95b5d7" stroke-width="1.51"/><path d="M335,-3L238,57L392,83Z" fill="#d7d7e9" stroke="#d7d7e9" stroke-width="1.51"/><path d="M199,348L95,384L169,427Z" fill="#b7c8e1" stroke="#b7c8e1" stroke-width="1.51"/><path d="M1382,620L1293,552L1230,668Z" fill="#2077ab" stroke="#2077ab" stroke-width="1.51"/><path d="M178,144L144,272L285,186Z" fill="#cfd2e7" stroke="#cfd2e7" stroke-width="1.51"/><path d="M169,427L118,533L196,556Z" fill="#a4bfdb" stroke="#a4bfdb" stroke-width="1.51"/><path d="M1360,233L1302,203L1281,239Z" fill="#7291bb" stroke="#7291bb" stroke-width="1.51"/><path d="M1302,203L1335,116L1206,151Z" fill="#7d98c0" stroke="#7d98c0" stroke-width="1.51"/><path d="M444,932L551,980L542,879Z" fill="#6084ad" stroke="#6084ad" stroke-width="1.51"/><path d="M818,1034L840,904L716,976Z" fill="#39739c" stroke="#39739c" stroke-width="1.51"/><path d="M1335,116L1274,50L1206,151Z" fill="#839cc3" stroke="#839cc3" stroke-width="1.51"/><path d="M1208,26L1204,-105L1054,24Z" fill="#92abd2" stroke="#92abd2" stroke-width="1.51"/><path d="M344,835L444,932L479,807Z" fill="#6e90ba" stroke="#6e90ba" stroke-width="1.51"/><path d="M328,-80L273,-10L335,-3Z" fill="#dedded" stroke="#dedded" stroke-width="1.51"/><path d="M335,-3L273,-10L238,57Z" fill="#dddceb" stroke="#dddceb" stroke-width="1.51"/><path d="M142,120L178,144L238,57Z" fill="#dbd9eb" stroke="#dbd9eb" stroke-width="1.51"/><path d="M238,57L178,144L285,186Z" fill="#d6d5e8" stroke="#d6d5e8" stroke-width="1.51"/><path d="M1380,333L1281,239L1270,369Z" fill="#638cb8" stroke="#638cb8" stroke-width="1.51"/><path d="M1380,333L1270,369L1347,456Z" fill="#5687b3" stroke="#5687b3" stroke-width="1.51"/><path d="M1427,337L1380,333L1347,456Z" fill="#5683ae" stroke="#5683ae" stroke-width="1.51"/><path d="M1166,802L1272,751L1139,728Z" fill="#056dab" stroke="#056dab" stroke-width="1.51"/><path d="M1247,842L1272,751L1166,802Z" fill="#0568a3" stroke="#0568a3" stroke-width="1.51"/><path d="M439,-66L328,-80L335,-3Z" fill="#dadbec" stroke="#dadbec" stroke-width="1.51"/><path d="M152,-115L328,-80L598,-87Z" fill="#dedeed" stroke="#dedeed" stroke-width="1.51"/><path d="M1335,173L1335,116L1302,203Z" fill="#7b95bc" stroke="#7b95bc" stroke-width="1.51"/><path d="M1464,177L1335,116L1335,173Z" fill="#7a93b8" stroke="#7a93b8" stroke-width="1.51"/><path d="M818,1034L716,976L627,978Z" fill="#42739a" stroke="#42739a" stroke-width="1.51"/><path d="M818,1034L888,1023L840,904Z" fill="#2f6d97" stroke="#2f6d97" stroke-width="1.51"/><path d="M1071,969L1111,934L1058,825Z" fill="#11689e" stroke="#11689e" stroke-width="1.51"/><path d="M551,980L818,1034L627,978Z" fill="#49769b" stroke="#49769b" stroke-width="1.51"/><path d="M197,781L292,847L262,707Z" fill="#839ec8" stroke="#839ec8" stroke-width="1.51"/><path d="M344,835L328,910L444,932Z" fill="#728fb7" stroke="#728fb7" stroke-width="1.51"/><path d="M1071,969L1058,825L957,911Z" fill="#186da1" stroke="#186da1" stroke-width="1.51"/><path d="M78,457L118,533L169,427Z" fill="#abc3de" stroke="#abc3de" stroke-width="1.51"/><path d="M196,648L178,710L262,707Z" fill="#8ca9d0" stroke="#8ca9d0" stroke-width="1.51"/><path d="M1386,1015L964,1012L888,1023Z" fill="#0f5c8a" stroke="#0f5c8a" stroke-width="1.51"/><path d="M888,1023L964,1012L884,912Z" fill="#246b96" stroke="#246b96" stroke-width="1.51"/><path d="M144,272L95,384L199,348Z" fill="#c0cce3" stroke="#c0cce3" stroke-width="1.51"/><path d="M178,144L115,236L144,272Z" fill="#d0d3e7" stroke="#d0d3e7" stroke-width="1.51"/><path d="M142,120L115,236L178,144Z" fill="#d7d7e9" stroke="#d7d7e9" stroke-width="1.51"/><path d="M112,602L178,710L196,648Z" fill="#91b0d4" stroke="#91b0d4" stroke-width="1.51"/><path d="M273,-10L205,28L238,57Z" fill="#dfdded" stroke="#dfdded" stroke-width="1.51"/><path d="M264,-80L205,28L273,-10Z" fill="#e2dfee" stroke="#e2dfee" stroke-width="1.51"/><path d="M28,297L95,384L144,272Z" fill="#c6d0e6" stroke="#c6d0e6" stroke-width="1.51"/><path d="M964,1012L1071,969L957,911Z" fill="#1a6896" stroke="#1a6896" stroke-width="1.51"/><path d="M1385,714L1382,620L1230,668Z" fill="#186fa6" stroke="#186fa6" stroke-width="1.51"/><path d="M1202,890L1247,842L1166,802Z" fill="#0466a0" stroke="#0466a0" stroke-width="1.51"/><path d="M1202,890L1166,802L1111,934Z" fill="#0566a0" stroke="#0566a0" stroke-width="1.51"/><path d="M1419,613L1382,620L1385,714Z" fill="#196da0" stroke="#196da0" stroke-width="1.51"/><path d="M1351,560L1446,465L1347,456Z" fill="#3d7caa" stroke="#3d7caa" stroke-width="1.51"/><path d="M205,28L142,120L238,57Z" fill="#dedcec" stroke="#dedcec" stroke-width="1.51"/><path d="M1062,-113L1338,-126L960,-128Z" fill="#9ab3d6" stroke="#9ab3d6" stroke-width="1.51"/><path d="M1302,-42L1204,-105L1208,26Z" fill="#91a7cb" stroke="#91a7cb" stroke-width="1.51"/><path d="M1302,-42L1208,26L1274,50Z" fill="#8ca3c8" stroke="#8ca3c8" stroke-width="1.51"/><path d="M1184,985L1202,890L1111,934Z" fill="#045f95" stroke="#045f95" stroke-width="1.51"/><path d="M282,906L328,910L292,847Z" fill="#7993b9" stroke="#7993b9" stroke-width="1.51"/><path d="M292,847L328,910L344,835Z" fill="#7994bc" stroke="#7994bc" stroke-width="1.51"/><path d="M444,932L411,992L551,980Z" fill="#6282a6" stroke="#6282a6" stroke-width="1.51"/><path d="M118,533L112,602L196,556Z" fill="#9cbad9" stroke="#9cbad9" stroke-width="1.51"/><path d="M-3,609L112,602L118,533Z" fill="#9ebcda" stroke="#9ebcda" stroke-width="1.51"/><path d="M1360,233L1464,177L1335,173Z" fill="#748fb5" stroke="#748fb5" stroke-width="1.51"/><path d="M1380,333L1463,255L1360,233Z" fill="#6789b0" stroke="#6789b0" stroke-width="1.51"/><path d="M1446,465L1427,337L1347,456Z" fill="#4c7fa9" stroke="#4c7fa9" stroke-width="1.51"/><path d="M-35,445L78,457L95,384Z" fill="#b7cae2" stroke="#b7cae2" stroke-width="1.51"/><path d="M95,384L78,457L169,427Z" fill="#b4c8e1" stroke="#b4c8e1" stroke-width="1.51"/><path d="M178,710L197,781L262,707Z" fill="#88a4ce" stroke="#88a4ce" stroke-width="1.51"/><path d="M99,732L197,781L178,710Z" fill="#8ba6cf" stroke="#8ba6cf" stroke-width="1.51"/><path d="M205,28L96,99L142,120Z" fill="#e0dded" stroke="#e0dded" stroke-width="1.51"/><path d="M328,-80L264,-80L273,-10Z" fill="#e2dfee" stroke="#e2dfee" stroke-width="1.51"/><path d="M152,-115L264,-80L328,-80Z" fill="#e7e3f0" stroke="#e7e3f0" stroke-width="1.51"/><path d="M328,910L411,992L444,932Z" fill="#6b88ac" stroke="#6b88ac" stroke-width="1.51"/><path d="M551,980L390,1016L818,1034Z" fill="#52779b" stroke="#52779b" stroke-width="1.51"/><path d="M390,1016L411,992L328,910Z" fill="#6c86a7" stroke="#6c86a7" stroke-width="1.51"/><path d="M1484,514L1446,465L1351,560Z" fill="#3776a3" stroke="#3776a3" stroke-width="1.51"/><path d="M189,886L282,906L292,847Z" fill="#7d96bb" stroke="#7d96bb" stroke-width="1.51"/><path d="M1384,-12L1302,-42L1274,50Z" fill="#8ba1c3" stroke="#8ba1c3" stroke-width="1.51"/><path d="M1384,-12L1274,50L1335,116Z" fill="#869cc0" stroke="#869cc0" stroke-width="1.51"/><path d="M1385,714L1230,668L1272,751Z" fill="#0f6ca6" stroke="#0f6ca6" stroke-width="1.51"/><path d="M1382,620L1419,613L1351,560Z" fill="#2173a4" stroke="#2173a4" stroke-width="1.51"/><path d="M1381,803L1385,714L1272,751Z" fill="#05659f" stroke="#05659f" stroke-width="1.51"/><path d="M1381,803L1272,751L1247,842Z" fill="#04649d" stroke="#04649d" stroke-width="1.51"/><path d="M98,-25L96,99L205,28Z" fill="#e6e2f0" stroke="#e6e2f0" stroke-width="1.51"/><path d="M142,120L50,182L115,236Z" fill="#d9d9ea" stroke="#d9d9ea" stroke-width="1.51"/><path d="M115,236L28,297L144,272Z" fill="#cdd3e8" stroke="#cdd3e8" stroke-width="1.51"/><path d="M1427,337L1463,255L1380,333Z" fill="#6084ac" stroke="#6084ac" stroke-width="1.51"/><path d="M1507,269L1463,255L1427,337Z" fill="#6182a7" stroke="#6182a7" stroke-width="1.51"/><path d="M251,1005L390,1016L328,910Z" fill="#7187a8" stroke="#7187a8" stroke-width="1.51"/><path d="M411,992L390,1016L551,980Z" fill="#627fa1" stroke="#627fa1" stroke-width="1.51"/><path d="M50,182L28,297L115,236Z" fill="#d3d6e9" stroke="#d3d6e9" stroke-width="1.51"/><path d="M-3,609L99,732L112,602Z" fill="#98b5d7" stroke="#98b5d7" stroke-width="1.51"/><path d="M1202,890L1250,938L1247,842Z" fill="#046198" stroke="#046198" stroke-width="1.51"/><path d="M1071,969L1184,985L1111,934Z" fill="#0a5f92" stroke="#0a5f92" stroke-width="1.51"/><path d="M964,1012L1184,985L1071,969Z" fill="#115f90" stroke="#115f90" stroke-width="1.51"/><path d="M1386,1015L1184,985L964,1012Z" fill="#035688" stroke="#035688" stroke-width="1.51"/><path d="M96,99L50,182L142,120Z" fill="#dedcec" stroke="#dedcec" stroke-width="1.51"/><path d="M197,781L189,886L292,847Z" fill="#829ac1" stroke="#829ac1" stroke-width="1.51"/><path d="M282,906L251,1005L328,910Z" fill="#778db0" stroke="#778db0" stroke-width="1.51"/><path d="M112,602L99,732L178,710Z" fill="#91aed3" stroke="#91aed3" stroke-width="1.51"/><path d="M-3,609L118,533L-28,508Z" fill="#a5c0dd" stroke="#a5c0dd" stroke-width="1.51"/><path d="M1184,985L1250,938L1202,890Z" fill="#045d91" stroke="#045d91" stroke-width="1.51"/><path d="M1546,367L1507,269L1427,337Z" fill="#5a7da2" stroke="#5a7da2" stroke-width="1.51"/><path d="M1419,613L1484,514L1351,560Z" fill="#2b73a2" stroke="#2b73a2" stroke-width="1.51"/><path d="M1525,555L1484,514L1419,613Z" fill="#2a6e9a" stroke="#2a6e9a" stroke-width="1.51"/><path d="M1463,255L1464,177L1360,233Z" fill="#6d89ae" stroke="#6d89ae" stroke-width="1.51"/><path d="M1507,269L1464,177L1463,255Z" fill="#6985a8" stroke="#6985a8" stroke-width="1.51"/><path d="M1302,-42L1296,-117L1204,-105Z" fill="#93a7ca" stroke="#93a7ca" stroke-width="1.51"/><path d="M1204,-105L1296,-117L1062,-113Z" fill="#97add1" stroke="#97add1" stroke-width="1.51"/><path d="M1338,-126L1296,-117L1302,-42Z" fill="#92a6c6" stroke="#92a6c6" stroke-width="1.51"/><path d="M1480,58L1384,-12L1335,116Z" fill="#8397b9" stroke="#8397b9" stroke-width="1.51"/><path d="M1385,714L1451,724L1419,613Z" fill="#13679c" stroke="#13679c" stroke-width="1.51"/><path d="M1384,895L1381,803L1247,842Z" fill="#045f95" stroke="#045f95" stroke-width="1.51"/><path d="M111,808L189,886L197,781Z" fill="#869ec5" stroke="#869ec5" stroke-width="1.51"/><path d="M96,99L21,183L50,182Z" fill="#dedcec" stroke="#dedcec" stroke-width="1.51"/><path d="M50,182L21,183L28,297Z" fill="#d6d9ea" stroke="#d6d9ea" stroke-width="1.51"/><path d="M1480,58L1431,-32L1384,-12Z" fill="#8598b6" stroke="#8598b6" stroke-width="1.51"/><path d="M1546,367L1427,337L1446,465Z" fill="#4f7ba2" stroke="#4f7ba2" stroke-width="1.51"/><path d="M1250,938L1384,895L1247,842Z" fill="#045e93" stroke="#045e93" stroke-width="1.51"/><path d="M1184,985L1246,976L1250,938Z" fill="#04588b" stroke="#04588b" stroke-width="1.51"/><path d="M99,732L111,808L197,781Z" fill="#8ba4cb" stroke="#8ba4cb" stroke-width="1.51"/><path d="M-42,719L111,808L99,732Z" fill="#91a9d1" stroke="#91a9d1" stroke-width="1.51"/><path d="M1424,777L1451,724L1385,714Z" fill="#066298" stroke="#066298" stroke-width="1.51"/><path d="M1424,777L1385,714L1381,803Z" fill="#056199" stroke="#056199" stroke-width="1.51"/><path d="M1443,869L1424,777L1381,803Z" fill="#055b90" stroke="#055b90" stroke-width="1.51"/><path d="M96,99L-36,116L21,183Z" fill="#e2dfee" stroke="#e2dfee" stroke-width="1.51"/><path d="M152,-115L98,-25L205,28Z" fill="#eae5f1" stroke="#eae5f1" stroke-width="1.51"/><path d="M1384,-12L1338,-126L1302,-42Z" fill="#8ea2c3" stroke="#8ea2c3" stroke-width="1.51"/><path d="M1296,-117L1338,-126L1062,-113Z" fill="#96abce" stroke="#96abce" stroke-width="1.51"/><path d="M1431,-32L1338,-126L1384,-12Z" fill="#8c9fbf" stroke="#8c9fbf" stroke-width="1.51"/><path d="M28,297L-27,349L95,384Z" fill="#c5d0e6" stroke="#c5d0e6" stroke-width="1.51"/><path d="M-82,348L-27,349L-128,296Z" fill="#ccd5e9" stroke="#ccd5e9" stroke-width="1.51"/><path d="M264,-80L152,-115L205,28Z" fill="#e7e3f0" stroke="#e7e3f0" stroke-width="1.51"/><path d="M838,-120L152,-115L598,-87Z" fill="#ced7ea" stroke="#ced7ea" stroke-width="1.51"/><path d="M75,-122L152,-115L838,-120Z" fill="#e0dfee" stroke="#e0dfee" stroke-width="1.51"/><path d="M-28,508L118,533L78,457Z" fill="#abc4df" stroke="#abc4df" stroke-width="1.51"/><path d="M1562,440L1546,367L1446,465Z" fill="#47759b" stroke="#47759b" stroke-width="1.51"/><path d="M1512,638L1525,555L1419,613Z" fill="#1e6a97" stroke="#1e6a97" stroke-width="1.51"/><path d="M-35,445L-28,508L78,457Z" fill="#b2c8e1" stroke="#b2c8e1" stroke-width="1.51"/><path d="M-27,349L-35,445L95,384Z" fill="#becee4" stroke="#becee4" stroke-width="1.51"/><path d="M1562,440L1446,465L1484,514Z" fill="#3e739c" stroke="#3e739c" stroke-width="1.51"/><path d="M200,979L282,906L189,886Z" fill="#7c92b5" stroke="#7c92b5" stroke-width="1.51"/><path d="M200,979L251,1005L282,906Z" fill="#788cad" stroke="#788cad" stroke-width="1.51"/><path d="M1564,690L1512,638L1451,724Z" fill="#126090" stroke="#126090" stroke-width="1.51"/><path d="M1451,724L1512,638L1419,613Z" fill="#176697" stroke="#176697" stroke-width="1.51"/><path d="M1480,58L1464,177L1503,79Z" fill="#798cac" stroke="#798cac" stroke-width="1.51"/><path d="M1480,58L1335,116L1464,177Z" fill="#7b91b3" stroke="#7b91b3" stroke-width="1.51"/><path d="M1503,79L1464,177L1551,187Z" fill="#7487a7" stroke="#7487a7" stroke-width="1.51"/><path d="M1553,814L1564,690L1451,724Z" fill="#05598b" stroke="#05598b" stroke-width="1.51"/><path d="M1386,1015L1384,895L1250,938Z" fill="#035585" stroke="#035585" stroke-width="1.51"/><path d="M55,916L189,886L111,808Z" fill="#879dc0" stroke="#879dc0" stroke-width="1.51"/><path d="M55,916L200,979L189,886Z" fill="#8195b6" stroke="#8195b6" stroke-width="1.51"/><path d="M1564,690L1562,440L1525,555Z" fill="#286890" stroke="#286890" stroke-width="1.51"/><path d="M1525,555L1562,440L1484,514Z" fill="#376f97" stroke="#376f97" stroke-width="1.51"/><path d="M1551,187L1464,177L1507,269Z" fill="#6b83a5" stroke="#6b83a5" stroke-width="1.51"/><path d="M1549,-36L1472,-91L1431,-32Z" fill="#8696b1" stroke="#8696b1" stroke-width="1.51"/><path d="M1551,187L1507,269L1546,367Z" fill="#607d9f" stroke="#607d9f" stroke-width="1.51"/><path d="M75,-122L26,21L98,-25Z" fill="#efe9f3" stroke="#efe9f3" stroke-width="1.51"/><path d="M98,-25L26,21L96,99Z" fill="#e9e5f1" stroke="#e9e5f1" stroke-width="1.51"/><path d="M-128,296L-27,349L28,297Z" fill="#ccd5e9" stroke="#ccd5e9" stroke-width="1.51"/><path d="M1562,440L1551,187L1546,367Z" fill="#56789a" stroke="#56789a" stroke-width="1.51"/><path d="M26,21L-36,116L96,99Z" fill="#e7e3f0" stroke="#e7e3f0" stroke-width="1.51"/><path d="M-27,349L-82,348L-35,445Z" fill="#c2d1e6" stroke="#c2d1e6" stroke-width="1.51"/><path d="M-68,179L28,297L21,183Z" fill="#d9daeb" stroke="#d9daeb" stroke-width="1.51"/><path d="M-132,505L-82,628L-28,508Z" fill="#aac5df" stroke="#aac5df" stroke-width="1.51"/><path d="M-82,628L-42,719L-3,609Z" fill="#9db8d9" stroke="#9db8d9" stroke-width="1.51"/><path d="M1384,895L1443,869L1381,803Z" fill="#045a8d" stroke="#045a8d" stroke-width="1.51"/><path d="M1452,982L1443,869L1384,895Z" fill="#035382" stroke="#035382" stroke-width="1.51"/><path d="M-36,116L-68,179L21,183Z" fill="#e2dfee" stroke="#e2dfee" stroke-width="1.51"/><path d="M-36,116L-79,96L-68,179Z" fill="#e6e2f0" stroke="#e6e2f0" stroke-width="1.51"/><path d="M26,21L-79,96L-36,116Z" fill="#e9e5f1" stroke="#e9e5f1" stroke-width="1.51"/><path d="M152,-115L75,-122L98,-25Z" fill="#efeaf4" stroke="#efeaf4" stroke-width="1.51"/><path d="M-17,-132L75,-122L838,-120Z" fill="#e5e2ef" stroke="#e5e2ef" stroke-width="1.51"/><path d="M-3,609L-42,719L99,732Z" fill="#98b2d5" stroke="#98b2d5" stroke-width="1.51"/><path d="M-82,628L-3,609L-28,508Z" fill="#a3c0dd" stroke="#a3c0dd" stroke-width="1.51"/><path d="M1553,814L1451,724L1424,777Z" fill="#045a8d" stroke="#045a8d" stroke-width="1.51"/><path d="M1512,638L1564,690L1525,555Z" fill="#1a638f" stroke="#1a638f" stroke-width="1.51"/><path d="M1549,-36L1431,-32L1480,58Z" fill="#8393b0" stroke="#8393b0" stroke-width="1.51"/><path d="M1431,-32L1472,-91L1338,-126Z" fill="#8c9ebb" stroke="#8c9ebb" stroke-width="1.51"/><path d="M1549,-36L1480,58L1503,79Z" fill="#7e8fab" stroke="#7e8fab" stroke-width="1.51"/><path d="M-132,505L-28,508L-35,445Z" fill="#b3c9e1" stroke="#b3c9e1" stroke-width="1.51"/><path d="M2,894L55,916L111,808Z" fill="#8b9fc2" stroke="#8b9fc2" stroke-width="1.51"/><path d="M200,979L63,1027L251,1005Z" fill="#798ba6" stroke="#798ba6" stroke-width="1.51"/><path d="M-127,-2L-79,96L26,21Z" fill="#eee9f3" stroke="#eee9f3" stroke-width="1.51"/><path d="M-68,179L-128,296L28,297Z" fill="#d5d9ea" stroke="#d5d9ea" stroke-width="1.51"/><path d="M-82,348L-135,453L-35,445Z" fill="#bfd0e5" stroke="#bfd0e5" stroke-width="1.51"/><path d="M-79,96L-128,296L-68,179Z" fill="#e0dfee" stroke="#e0dfee" stroke-width="1.51"/><path d="M1443,869L1553,814L1424,777Z" fill="#045788" stroke="#045788" stroke-width="1.51"/><path d="M1246,976L1386,1015L1250,938Z" fill="#045484" stroke="#045484" stroke-width="1.51"/><path d="M1184,985L1386,1015L1246,976Z" fill="#045383" stroke="#045383" stroke-width="1.51"/><path d="M818,1034L1386,1015L888,1023Z" fill="#145e8a" stroke="#145e8a" stroke-width="1.51"/><path d="M-128,296L-135,453L-82,348Z" fill="#c7d4e8" stroke="#c7d4e8" stroke-width="1.51"/><path d="M-135,453L-132,505L-35,445Z" fill="#b7cce3" stroke="#b7cce3" stroke-width="1.51"/><path d="M1561,-116L1549,-36L1551,187Z" fill="#7e8da6" stroke="#7e8da6" stroke-width="1.51"/><path d="M1551,187L1549,-36L1503,79Z" fill="#798aa6" stroke="#798aa6" stroke-width="1.51"/><path d="M-42,848L2,894L111,808Z" fill="#8da2c5" stroke="#8da2c5" stroke-width="1.51"/><path d="M55,916L63,1027L200,979Z" fill="#8091ae" stroke="#8091ae" stroke-width="1.51"/><path d="M-42,848L111,808L-42,719Z" fill="#91a8cd" stroke="#91a8cd" stroke-width="1.51"/><path d="M-42,848L-42,719L-98,847Z" fill="#94a9cc" stroke="#94a9cc" stroke-width="1.51"/><path d="M1539,878L1553,814L1443,869Z" fill="#045180" stroke="#045180" stroke-width="1.51"/><path d="M1386,1015L1452,982L1384,895Z" fill="#034f7b" stroke="#034f7b" stroke-width="1.51"/><path d="M-122,695L-42,719L-82,628Z" fill="#9cb6d8" stroke="#9cb6d8" stroke-width="1.51"/><path d="M1452,982L1539,878L1443,869Z" fill="#034f7c" stroke="#034f7c" stroke-width="1.51"/><path d="M-135,453L-122,695L-132,505Z" fill="#acc6e0" stroke="#acc6e0" stroke-width="1.51"/><path d="M-132,505L-122,695L-82,628Z" fill="#a3c0dd" stroke="#a3c0dd" stroke-width="1.51"/><path d="M960,-128L-17,-132L838,-120Z" fill="#c8d5e8" stroke="#c8d5e8" stroke-width="1.51"/><path d="M75,-122L-17,-132L26,21Z" fill="#f3edf6" stroke="#f3edf6" stroke-width="1.51"/><path d="M17,1020L55,916L2,894Z" fill="#8798b6" stroke="#8798b6" stroke-width="1.51"/><path d="M17,1020L63,1027L55,916Z" fill="#8292ad" stroke="#8292ad" stroke-width="1.51"/><path d="M251,1005L63,1027L390,1016Z" fill="#7486a3" stroke="#7486a3" stroke-width="1.51"/><path d="M390,1016L63,1027L818,1034Z" fill="#637c9c" stroke="#637c9c" stroke-width="1.51"/><path d="M1549,-36L1561,-116L1472,-91Z" fill="#8593ac" stroke="#8593ac" stroke-width="1.51"/><path d="M1472,-91L1561,-116L1338,-126Z" fill="#8b9cb6" stroke="#8b9cb6" stroke-width="1.51"/><path d="M1562,440L1561,-116L1551,187Z" fill="#6e829f" stroke="#6e829f" stroke-width="1.51"/><path d="M1564,690L1561,-116L1562,440Z" fill="#547698" stroke="#547698" stroke-width="1.51"/><path d="M-104,-96L-127,-2L26,21Z" fill="#f4edf6" stroke="#f4edf6" stroke-width="1.51"/><path d="M-79,96L-127,-2L-128,296Z" fill="#e8e4f1" stroke="#e8e4f1" stroke-width="1.51"/><path d="M-128,296L-127,-2L-135,453Z" fill="#dadded" stroke="#dadded" stroke-width="1.51"/><path d="M-42,848L-67,906L2,894Z" fill="#8ea2c2" stroke="#8ea2c2" stroke-width="1.51"/><path d="M-122,695L-98,847L-42,719Z" fill="#97aed4" stroke="#97aed4" stroke-width="1.51"/><path d="M-69,983L17,1020L2,894Z" fill="#8797b3" stroke="#8797b3" stroke-width="1.51"/><path d="M-98,847L-67,906L-42,848Z" fill="#90a4c5" stroke="#90a4c5" stroke-width="1.51"/><path d="M-17,-132L-104,-96L26,21Z" fill="#f6eff6" stroke="#f6eff6" stroke-width="1.51"/><path d="M1386,1015L1543,997L1452,982Z" fill="#03466e" stroke="#03466e" stroke-width="1.51"/><path d="M1452,982L1543,997L1539,878Z" fill="#034771" stroke="#034771" stroke-width="1.51"/><path d="M1539,878L1543,997L1553,814Z" fill="#034b77" stroke="#034b77" stroke-width="1.51"/><path d="M1553,814L1543,997L1564,690Z" fill="#03507d" stroke="#03507d" stroke-width="1.51"/><path d="M-98,847L-69,983L-67,906Z" fill="#8ea0be" stroke="#8ea0be" stroke-width="1.51"/><path d="M-67,906L-69,983L2,894Z" fill="#8b9dbb" stroke="#8b9dbb" stroke-width="1.51"/></svg>