<?xml version="1.0" standalone="no"?>
<!DOCTYPE svg PUBLIC "-//W3C//DTD SVG 1.1//EN" "http://www.w3.org/Graphics/SVG/1.1/DTD/svg11.dtd">
<svg width="100%" height="100%" viewBox="0 0 260 260" version="1.1" xmlns="http://www.w3.org/2000/svg" xmlns:xlink="http://www.w3.org/1999/xlink" xml:space="preserve" style="fill-rule:evenodd;clip-rule:evenodd;stroke-linejoin:round;stroke-miterlimit:1.41421;">
    <g id="i-like-food">
        <path d="M24.37,16C24.57,16.65 24.76,17.32 24.91,18L21.17,18L22.79,21.24L22.55,21.35L22.55,28C23.808,28.944 24.55,30.427 24.55,32C24.55,34.453 22.744,36.562 20.32,36.94L20.3,37C19.391,40.522 16.188,43.002 12.55,43L-7.45,43C-11.084,42.997 -14.281,40.519 -15.19,37L-15.21,36.94C-17.638,36.566 -19.448,34.455 -19.448,31.998C-19.448,30.427 -18.707,28.944 -17.45,28L-17.45,21.24L-18.24,19.66L-18.68,18.76L-17.78,18.32L-17.15,18L-20,18C-17.659,7.522 -8.28,0.008 2.456,0.008C12.434,0.008 21.327,6.498 24.37,16L24.37,16ZM-12.45,18C-12.602,17.999 -12.753,18.034 -12.89,18.1L-15.99,19.66L-15.1,21.45L-13.79,20.79C-12.944,20.366 -11.946,20.366 -11.1,20.79L-8.9,21.89C-8.617,22.033 -8.283,22.033 -8,21.89L-5.79,20.79C-4.944,20.366 -3.946,20.366 -3.1,20.79L-0.9,21.89C-0.617,22.033 -0.283,22.033 0,21.89L2.21,20.79C3.056,20.366 4.054,20.366 4.9,20.79L7.1,21.89C7.369,22.026 7.685,22.033 7.96,21.91L10.84,20.64C11.613,20.297 12.497,20.297 13.27,20.64L16.15,21.91C16.422,22.03 16.734,22.023 17,21.89L20.1,20.34L19.21,18.55L17.79,19.26C16.989,19.661 16.049,19.683 15.23,19.32L12.46,18.09C12.334,18.033 12.198,18.002 12.06,18L12.05,18C11.912,18.002 11.776,18.033 11.65,18.09L8.87,19.32C8.051,19.683 7.111,19.661 6.31,19.26L4.01,18.11C3.871,18.039 3.717,18.001 3.56,18L3.55,18C3.398,17.999 3.247,18.034 3.11,18.1L0.9,19.22C0.054,19.644 -0.944,19.644 -1.79,19.22L-3.99,18.12C-4.129,18.049 -4.283,18.011 -4.44,18.01L-4.45,18.01C-4.602,18.009 -4.753,18.044 -4.89,18.11L-7.1,19.22C-7.946,19.644 -8.944,19.644 -9.79,19.22L-11.99,18.12C-12.129,18.049 -12.283,18.011 -12.44,18.01L-12.45,18.01L-12.45,18ZM-12.45,16L-17.35,16C-14.386,7.631 -6.423,2.003 2.455,2.003C11.333,2.003 19.296,7.631 22.26,16L20.17,16L20.11,15.87L19.85,16L-12.46,16L-12.45,16ZM17.9,23.68L19.26,23L20.56,23L20.56,25L-15.44,25L-15.44,23.85L-15.1,23.68L-13.74,23L-11.15,23L-9.79,23.68C-8.944,24.104 -7.946,24.104 -7.1,23.68L-5.74,23L-3.15,23L-1.79,23.68C-0.944,24.104 0.054,24.104 0.9,23.68L2.26,23L4.85,23L6.21,23.68C7.011,24.081 7.951,24.103 8.77,23.74L10.44,23L13.67,23L15.34,23.74C16.159,24.103 17.099,24.081 17.9,23.68L17.9,23.68ZM-13.82,27L2.55,31.91L18.93,27L-13.82,27ZM-14.45,29L-14.11,29L2.55,34L19.22,29L19.55,29C21.196,29 22.55,30.354 22.55,32C22.55,33.646 21.196,35 19.55,35L-14.45,35C-16.096,35 -17.45,33.646 -17.45,32C-17.45,30.354 -16.096,29 -14.45,29L-14.45,29ZM-13.1,37C-12.255,39.389 -9.984,40.997 -7.45,41L12.55,41C15.088,41.001 17.364,39.393 18.21,37L-13.1,37L-13.1,37Z" style="fill:rgb(156,39,176);"/>
        <path id="path6_fill-copy" d="M284.37,16C284.57,16.65 284.76,17.32 284.91,18L281.17,18L282.79,21.24L282.55,21.35L282.55,28C283.808,28.944 284.55,30.427 284.55,32C284.55,34.453 282.744,36.562 280.32,36.94L280.3,37C279.391,40.522 276.188,43.002 272.55,43L252.55,43C248.916,42.997 245.719,40.519 244.81,37L244.79,36.94C242.362,36.566 240.552,34.455 240.552,31.998C240.552,30.427 241.293,28.944 242.55,28L242.55,21.24L241.76,19.66L241.32,18.76L242.22,18.32L242.85,18L240,18C242.341,7.522 251.72,0.008 262.456,0.008C272.434,0.008 281.327,6.498 284.37,16ZM247.55,18C247.398,17.999 247.247,18.034 247.11,18.1L244.01,19.66L244.9,21.45L246.21,20.79C247.056,20.366 248.054,20.366 248.9,20.79L251.1,21.89C251.383,22.033 251.717,22.033 252,21.89L254.21,20.79C255.056,20.366 256.054,20.366 256.9,20.79L259.1,21.89C259.383,22.033 259.717,22.033 260,21.89L262.21,20.79C263.056,20.366 264.054,20.366 264.9,20.79L267.1,21.89C267.369,22.026 267.685,22.033 267.96,21.91L270.84,20.64C271.613,20.297 272.497,20.297 273.27,20.64L276.15,21.91C276.422,22.03 276.734,22.023 277,21.89L280.1,20.34L279.21,18.55L277.79,19.26C276.989,19.661 276.049,19.683 275.23,19.32L272.46,18.09C272.334,18.033 272.198,18.002 272.06,18L272.05,18C271.912,18.002 271.776,18.033 271.65,18.09L268.87,19.32C268.051,19.683 267.111,19.661 266.31,19.26L264.01,18.11C263.871,18.039 263.717,18.001 263.56,18L263.55,18C263.398,17.999 263.247,18.034 263.11,18.1L260.9,19.21C260.054,19.634 259.056,19.634 258.21,19.21L256.01,18.11C255.871,18.039 255.717,18.001 255.56,18L255.55,18C255.398,17.999 255.247,18.034 255.11,18.1L252.9,19.21C252.054,19.634 251.056,19.634 250.21,19.21L248.01,18.11C247.871,18.039 247.717,18.001 247.56,18L247.55,18L247.55,18ZM247.55,16L242.65,16C245.614,7.631 253.577,2.003 262.455,2.003C271.333,2.003 279.296,7.631 282.26,16L280.17,16L280.11,15.87L279.85,16L247.54,16L247.55,16ZM277.9,23.68L279.26,23L280.56,23L280.56,25L244.56,25L244.56,23.85L244.9,23.68L246.26,23L248.85,23L250.21,23.68C251.056,24.104 252.054,24.104 252.9,23.68L254.26,23L256.85,23L258.21,23.68C259.056,24.104 260.054,24.104 260.9,23.68L262.26,23L264.85,23L266.21,23.68C267.011,24.081 267.951,24.103 268.77,23.74L270.44,23L273.67,23L275.34,23.74C276.159,24.103 277.099,24.081 277.9,23.68L277.9,23.68ZM246.18,27L262.55,31.91L278.93,27L246.18,27ZM245.55,29L245.89,29L262.55,34L279.22,29L279.55,29C281.196,29 282.55,30.354 282.55,32C282.55,33.646 281.196,35 279.55,35L245.55,35C243.904,35 242.55,33.646 242.55,32C242.55,30.354 243.904,29 245.55,29ZM246.9,37C247.745,39.389 250.016,40.997 252.55,41L272.55,41C275.088,41.001 277.364,39.393 278.21,37L246.9,37Z" style="fill:rgb(156,39,176);"/>
        <path d="M159.5,21.02C158.237,17.42 154.815,14.997 151,15L109,15C105.185,14.997 101.763,17.42 100.5,21.02C97.407,21.278 94.999,23.896 94.999,26.999C94.999,30.11 97.419,32.731 100.52,32.98C100.172,33.952 99.994,34.977 99.994,36.01C99.994,40.942 104.052,45 108.984,45C108.989,45 108.995,45 109,45L151,45C151.001,45 151.001,45 151.002,45C155.939,45 160.002,40.937 160.002,36C160.002,34.971 159.825,33.949 159.48,32.98C162.581,32.731 165.001,30.11 165.001,26.999C165.001,23.896 162.593,21.278 159.5,21.02L159.5,21.02ZM151,17L109,17C106.299,16.998 103.828,18.559 102.67,21L157.33,21C156.172,18.559 153.701,16.998 151,17L151,17ZM141.66,43C143.774,41.294 145.004,38.717 145,36L143,36C143,39.84 139.84,43 136,43L131.66,43C133.774,41.294 135.004,38.717 135,36L133,36C133,39.84 129.84,43 126,43L121.66,43C123.774,41.294 125.004,38.717 125,36L123,36C123,39.84 119.84,43 116,43L109,43C105.16,43 102,39.84 102,36C102,32.16 105.16,29 109,29L151,29C154.84,29 158,32.16 158,36C158,39.84 154.84,43 151,43L141.66,43ZM109,27C105.998,27.001 103.188,28.504 101.52,31L101,31C98.806,31 97,29.194 97,27C97,24.806 98.806,23 101,23L159,23C161.194,23 163,24.806 163,27C163,29.194 161.194,31 159,31L158.48,31C156.812,28.504 154.002,27.001 151,27L109,27Z" style="fill:rgb(156,39,176);"/>
        <path d="M39,115C43.389,115 47,111.389 47,107C47,102.611 43.389,99 39,99C34.611,99 31,102.611 31,107C31,111.389 34.611,115 39,115ZM45,107C45,110.292 42.292,113 39,113C35.708,113 33,110.292 33,107C33,103.708 35.708,101 39,101C42.292,101 45,103.708 45,107ZM42,78L42,76L50,76L50,70L40,70C37.806,70 36,71.806 36,74L36,84L22,84L20.67,88L20,90L22.19,90L26,130L52,130L55.81,90L58,90L57.33,88L56,84L42,84L42,78ZM38,74L38,84L40,84L40,74L48,74L48,72L40,72C38.903,72 38,72.903 38,74ZM40,86L54.56,86L55.23,88L22.77,88L23.44,86L40,86ZM53.8,90L24.2,90L27.82,128L50.18,128L53.8,90Z" style="fill:rgb(156,39,176);"/>
        <path d="M129,92L123,92L123,96L117,96L117,100L111,100L111,114L108,114L108.24,116L112,148L148,148L151.76,116L152,114L149,114L149,100L143,100L143,96L137,96L137,92L129,92ZM147,114L147,102L143,102L143,106L146,106L146,114L147,114ZM144,114L144,108L140,108L140,114L144,114ZM138,120L138,104L134,104L134,123.17C135.6,122.47 136.97,121.37 138,120ZM132,123.8L132,100L128,100L128,123.8C129.32,124.068 130.68,124.068 132,123.8ZM126,123.17L126,104L122,104L122,120C123.038,121.383 124.416,122.476 126,123.17L126,123.17ZM120,114L120,108L116,108L116,114L120,114ZM114,114L114,106L117,106L117,102L113,102L113,114L114,114ZM141,102L141,98L137,98L137,102L140,102L140,106L141,106L141,102ZM135,102L135,94L131,94L131,98L134,98L134,102L135,102ZM129,98L129,94L125,94L125,102L126,102L126,98L129,98ZM123,102L123,98L119,98L119,106L120,106L120,102L123,102ZM130,126C135.83,125.999 140.858,121.749 141.83,116L149.75,116L146.22,146L113.78,146L110.25,116L118.17,116C119.142,121.749 124.17,125.999 130,126L130,126Z" style="fill:rgb(156,39,176);"/>
        <path d="M212,86L212,88L208,88L208,86L212,86ZM216,86L214,86L214,88L216,88L216,86ZM196,86L196,86.1C193.68,86.573 191.999,88.632 191.999,90.999C191.999,93.154 193.392,95.078 195.44,95.75L195.5,96L196.62,100.48C196.84,101.369 197.644,101.999 198.56,102L198.57,102L205.59,126.55C205.834,127.405 206.621,127.999 207.51,128L212.49,128C213.379,127.999 214.166,127.405 214.41,126.55L221.43,102C222.35,102.004 223.159,101.373 223.38,100.48L224.5,96L224.56,95.75C226.608,95.078 228.001,93.154 228.001,90.999C228.001,88.632 226.32,86.573 224,86.1L224,86C224,78.32 217.68,72 210,72C202.32,72 196,78.32 196,86ZM200,86L206,86L206,88L197,88C195.354,88 194,89.354 194,91C194,92.646 195.354,94 197,94L223,94C224.646,94 226,92.646 226,91C226,89.354 224.646,88 223,88L220,88L220,86L222,86C222,79.417 216.583,74 210,74C203.417,74 198,79.417 198,86L200,86ZM198.56,100L197.56,96L222.44,96L221.44,100L198.56,100ZM207.51,126L200.65,102L219.35,102L212.49,126L207.51,126L207.51,126ZM150,242C162.069,242 172,232.069 172,220C172,207.931 162.069,198 150,198C137.931,198 128,207.931 128,220C128,232.069 137.931,242 150,242ZM174,220C174,233.166 163.166,244 150,244C136.834,244 126,233.166 126,220C126,206.834 136.834,196 150,196C163.166,196 174,206.834 174,220ZM145.62,237.73L147.66,236.86C149.155,236.227 150.845,236.227 152.34,236.86L154.38,237.73C155.297,238.119 156.371,237.766 156.88,236.91L158.02,235.01C158.858,233.618 160.227,232.625 161.81,232.26L163.96,231.76C164.925,231.536 165.585,230.627 165.5,229.64L165.31,227.44C165.168,225.819 165.692,224.208 166.76,222.98L168.21,221.31C168.859,220.562 168.859,219.438 168.21,218.69L166.76,217.02C165.692,215.792 165.168,214.181 165.31,212.56L165.51,210.36C165.599,209.367 164.933,208.45 163.96,208.23L161.81,207.73C160.223,207.367 158.851,206.374 158.01,204.98L156.88,203.08C156.365,202.231 155.292,201.888 154.38,202.28L152.34,203.14C150.845,203.773 149.155,203.773 147.66,203.14L145.62,202.27C144.703,201.881 143.629,202.234 143.12,203.09L141.98,204.99C141.142,206.382 139.773,207.375 138.19,207.74L136.04,208.24C135.075,208.464 134.415,209.373 134.5,210.36L134.69,212.56C134.832,214.181 134.308,215.792 133.24,217.02L131.79,218.69C131.141,219.438 131.141,220.562 131.79,221.31L133.24,222.98C134.308,224.208 134.832,225.819 134.69,227.44L134.49,229.64C134.401,230.633 135.067,231.55 136.04,231.77L138.19,232.27C139.777,232.633 141.149,233.626 141.99,235.02L143.12,236.92C143.635,237.769 144.708,238.112 145.62,237.72L145.62,237.73ZM148.44,238.7C149.437,238.278 150.563,238.278 151.56,238.7L153.6,239.57C155.426,240.345 157.567,239.65 158.59,237.95L159.73,236.05C160.288,235.119 161.202,234.454 162.26,234.21L164.41,233.71C166.344,233.266 167.669,231.447 167.5,229.47L167.3,227.27C167.205,226.187 167.555,225.11 168.27,224.29L169.72,222.62C171.017,221.123 171.017,218.877 169.72,217.38L168.27,215.71C167.558,214.893 167.207,213.82 167.3,212.74L167.5,210.54C167.675,208.56 166.348,206.735 164.41,206.29L162.26,205.79C161.202,205.546 160.288,204.881 159.73,203.95L158.59,202.05C157.566,200.345 155.419,199.649 153.59,200.43L151.56,201.3C150.563,201.722 149.437,201.722 148.44,201.3L146.4,200.43C144.574,199.655 142.433,200.35 141.41,202.05L140.27,203.95C139.712,204.881 138.798,205.546 137.74,205.79L135.59,206.29C133.656,206.734 132.331,208.553 132.5,210.53L132.7,212.73C132.795,213.813 132.445,214.89 131.73,215.71L130.28,217.38C128.983,218.877 128.983,221.123 130.28,222.62L131.73,224.29C132.442,225.107 132.793,226.18 132.7,227.26L132.5,229.46C132.325,231.44 133.652,233.265 135.59,233.71L137.74,234.21C138.798,234.454 139.712,235.119 140.27,236.05L141.41,237.95C142.434,239.655 144.581,240.351 146.41,239.57L148.44,238.7ZM152,207C152,206.451 152.451,206 153,206C153.549,206 154,206.451 154,207C154,207.549 153.549,208 153,208C152.451,208 152,207.549 152,207ZM158,209C158,208.451 158.451,208 159,208C159.549,208 160,208.451 160,209C160,209.549 159.549,210 159,210C158.451,210 158,209.549 158,209ZM147,210C147,209.451 147.451,209 148,209C148.549,209 149,209.451 149,210C149,210.549 148.549,211 148,211C147.451,211 147,210.549 147,210ZM141,210C141,209.451 141.451,209 142,209C142.549,209 143,209.451 143,210C143,210.549 142.549,211 142,211C141.451,211 141,210.549 141,210ZM144,205C144,204.451 144.451,204 145,204C145.549,204 146,204.451 146,205C146,205.549 145.549,206 145,206C144.451,206 144,205.549 144,205ZM136,213C136,212.451 136.451,212 137,212C137.549,212 138,212.451 138,213C138,213.549 137.549,214 137,214C136.451,214 136,213.549 136,213ZM139,219C139,218.451 139.451,218 140,218C140.549,218 141,218.451 141,219C141,219.549 140.549,220 140,220C139.451,220 139,219.549 139,219ZM139,225C139,224.451 139.451,224 140,224C140.549,224 141,224.451 141,225C141,225.549 140.549,226 140,226C139.451,226 139,225.549 139,225ZM143,232C143,231.451 143.451,231 144,231C144.549,231 145,231.451 145,232C145,232.549 144.549,233 144,233C143.451,233 143,232.549 143,232ZM148,230C148,229.451 148.451,229 149,229C149.549,229 150,229.451 150,230C150,230.549 149.549,231 149,231C148.451,231 148,230.549 148,230ZM153,234C153,233.451 153.451,233 154,233C154.549,233 155,233.451 155,234C155,234.549 154.549,235 154,235C153.451,235 153,234.549 153,234ZM157,228C157,227.451 157.451,227 158,227C158.549,227 159,227.451 159,228C159,228.549 158.549,229 158,229C157.451,229 157,228.549 157,228ZM163,224C163,223.451 163.451,223 164,223C164.549,223 165,223.451 165,224C165,224.549 164.549,225 164,225C163.451,225 163,224.549 163,224ZM159,221C159,220.451 159.451,220 160,220C160.549,220 161,220.451 161,221C161,221.549 160.549,222 160,222C159.451,222 159,221.549 159,221ZM163,218C163,217.451 163.451,217 164,217C164.549,217 165,217.451 165,218C165,218.549 164.549,219 164,219C163.451,219 163,218.549 163,218ZM158,214C158,213.451 158.451,213 159,213C159.549,213 160,213.451 160,214C160,214.549 159.549,215 159,215C158.451,215 158,214.549 158,214ZM134,220C134,219.451 134.451,219 135,219C135.549,219 136,219.451 136,220C136,220.549 135.549,221 135,221C134.451,221 134,220.549 134,220ZM150,225C152.743,225 155,222.743 155,220C155,217.257 152.743,215 150,215C147.257,215 145,217.257 145,220C145,222.743 147.257,225 150,225ZM157,220C157,223.84 153.84,227 150,227C146.16,227 143,223.84 143,220C143,216.16 146.16,213 150,213C153.84,213 157,216.16 157,220ZM243,191C242.451,191 242,191.451 242,192C242,192.549 242.451,193 243,193L245,193C245.549,193 246,192.549 246,192C246,191.451 245.549,191 245,191L243,191ZM262,200C262,199.451 262.451,199 263,199L265,199C265.549,199 266,199.451 266,200C266,200.549 265.549,201 265,201L263,201C262.451,201 262,200.549 262,200ZM248,205C247.451,205 247,205.451 247,206C247,206.549 247.451,207 248,207L250,207C250.549,207 251,206.549 251,206C251,205.451 250.549,205 250,205L248,205ZM223,206C222.451,206 222,206.451 222,207C222,207.549 222.451,208 223,208L225,208C225.549,208 226,207.549 226,207C226,206.451 225.549,206 225,206L223,206ZM228,210C227.451,210 227,210.451 227,211C227,211.549 227.451,212 228,212L230,212C230.549,212 231,211.549 231,211C231,210.451 230.549,210 230,210L228,210ZM237,210C237,209.451 237.451,209 238,209L240,209C240.549,209 241,209.451 241,210C241,210.549 240.549,211 240,211L238,211C237.451,211 237,210.549 237,210ZM252,211C252,210.451 252.451,210 253,210L255,210C255.549,210 256,210.451 256,211C256,211.549 255.549,212 255,212L253,212C252.451,212 252,211.549 252,211ZM264,209C263.451,209 263,209.451 263,210C263,210.549 263.451,211 264,211L266,211C266.549,211 267,210.549 267,210C267,209.451 266.549,209 266,209L264,209ZM253,195C253,194.451 253.451,194 254,194L256,194C256.549,194 257,194.451 257,195C257,195.549 256.549,196 256,196L254,196C253.451,196 253,195.549 253,195ZM234,195C233.451,195 233,195.451 233,196C233,196.549 233.451,197 234,197L236,197C236.549,197 237,196.549 237,196C237,195.451 236.549,195 236,195L234,195ZM240,200C240,199.451 240.451,199 241,199L243,199C243.549,199 244,199.451 244,200C244,200.549 243.549,201 243,201L241,201C240.451,201 240,200.549 240,200ZM215,215C215,214.53 215.01,214.06 215.03,213.6C213.192,212.815 211.994,211 211.994,209.002C211.994,207.74 212.472,206.525 213.33,205.6C212.477,203.66 213.311,201.362 215.21,200.42C215.074,199.96 215.005,199.482 215.005,199.002C215.005,196.784 216.48,194.819 218.61,194.2C218.978,193.709 219.487,193.342 220.07,193.15C220.482,190.762 222.574,189 224.997,189C226.009,189 226.997,189.307 227.83,189.88C233.112,186.049 239.475,183.989 246,184C252.79,184 259.06,186.18 264.17,189.88C265.003,189.307 265.991,189 267.003,189C269.426,189 271.518,190.762 271.93,193.15C272.516,193.341 273.03,193.707 273.4,194.2C275.53,194.819 277.005,196.784 277.005,199.002C277.005,199.482 276.936,199.96 276.8,200.42C278.691,201.369 279.519,203.662 278.67,205.6C279.537,206.523 280.02,207.743 280.02,209.009C280.02,211.01 278.814,212.825 276.97,213.6C276.99,214.06 277,214.53 277,215L277,216L215,216L215,215L215,215ZM215.83,207.83C215.554,209.007 215.347,210.199 215.21,211.4C214.451,210.834 214.004,209.942 214.004,208.995C214.004,208.348 214.213,207.718 214.6,207.2C214.97,207.48 215.38,207.69 215.83,207.83L215.83,207.83ZM217.32,203.22C216.96,204.09 216.64,204.98 216.36,205.9C215.546,205.628 214.994,204.861 214.994,204.003C214.994,203.227 215.446,202.518 216.15,202.19C216.48,202.59 216.88,202.94 217.32,203.22L217.32,203.22ZM219.64,198.68C219.1,199.54 218.61,200.44 218.15,201.36C217.423,200.792 216.998,199.919 216.998,198.997C216.998,198.106 217.395,197.26 218.08,196.69C218.281,197.55 218.853,198.279 219.64,198.68L219.64,198.68ZM220.78,196.98C221.13,196.48 221.5,196 221.88,195.52C221.706,195.197 221.367,194.994 221,194.994C220.451,194.994 220,195.446 220,195.994C220,196.46 220.325,196.868 220.78,196.97L220.78,196.98ZM226.12,191.21C225.09,192.07 224.12,193 223.22,193.98C222.913,193.642 222.534,193.379 222.11,193.21C222.465,191.909 223.656,190.999 225.004,190.999C225.383,190.999 225.758,191.07 226.11,191.21L226.12,191.21ZM268.78,193.98C267.88,193 266.91,192.08 265.88,191.21C266.234,191.068 266.613,190.995 266.995,190.995C268.345,190.995 269.537,191.907 269.89,193.21C269.47,193.38 269.094,193.644 268.79,193.98L268.78,193.98ZM270.12,195.52C270.5,196 270.87,196.48 271.22,196.97C271.675,196.868 272,196.46 272,195.994C272,195.446 271.549,194.994 271,194.994C270.633,194.994 270.294,195.197 270.12,195.52ZM273.85,201.36C273.39,200.44 272.9,199.54 272.35,198.68C273.141,198.281 273.716,197.552 273.92,196.69C274.605,197.26 275.002,198.106 275.002,198.997C275.002,199.919 274.577,200.792 273.85,201.36L273.85,201.36ZM275.65,205.89C275.36,204.99 275.05,204.09 274.68,203.22C275.12,202.94 275.52,202.59 275.85,202.19C276.549,202.519 276.998,203.226 276.998,203.999C276.998,204.85 276.455,205.612 275.65,205.89L275.65,205.89ZM276.79,211.4C276.65,210.19 276.44,209 276.17,207.83C276.62,207.69 277.03,207.48 277.4,207.2C277.792,207.719 278.004,208.352 278.004,209.002C278.004,209.946 277.557,210.836 276.8,211.4L276.79,211.4ZM275,214C274.5,198.451 261.572,185.933 246.015,185.933C230.458,185.933 217.53,198.451 217.03,214L275,214ZM72.33,198.12C72.12,197.8 71.99,197.42 71.99,197L71.99,185L69.99,185L69.99,197C70.005,199.189 71.811,200.982 74,200.982C75.189,200.982 76.319,200.453 77.08,199.54C77.65,198.85 77.99,197.97 77.99,197L77.99,185L75.99,185L75.99,197C75.99,197.003 75.99,197.007 75.99,197.01C75.99,198.102 75.092,199 74,199C73.997,199 73.993,199 73.99,199C73.325,199.001 72.702,198.671 72.33,198.12L72.33,198.12ZM75,176C75.38,176 75.74,175.96 76.1,175.88C76.51,177.697 78.139,178.999 80.002,178.999C80.82,178.999 81.619,178.748 82.29,178.28C83.417,180.34 84.005,182.652 84,185L84,209C84,212.292 81.292,215 78,215L75,215L75,224C75,226.743 72.743,229 70,229C67.257,229 65,226.743 65,224L65,215L62,215C58.708,215 56,212.292 56,209L56,185C56,177.32 62.32,171 70,171C70,173.743 72.257,176 75,176ZM58,191L58,203C57.998,203.802 58.481,204.53 59.22,204.84C60.097,205.213 61.126,204.91 61.66,204.12C61.87,203.8 62,203.42 62,203L62,191L64,191L64,203C64,203.011 64,203.022 64,203.033C64,205.217 62.204,207.013 60.02,207.013C59.553,207.013 59.089,206.931 58.65,206.77C58.425,206.69 58.207,206.589 58,206.47L58,209C58,211.194 59.806,213 62,213L78,213C80.194,213 82,211.194 82,209L82,185C82.01,183.47 81.77,182.12 81.28,180.83C80.85,180.93 80.41,180.99 80,181C77.858,181.001 75.871,179.855 74.8,178C71.833,177.914 69.228,175.95 68.33,173.12C62.434,173.949 58.002,179.046 58,185L58,191ZM67,215L67,224C67,225.646 68.354,227 70,227C71.646,227 73,225.646 73,224L73,215L67,215Z" style="fill:rgb(156,39,176);"/>
        <path d="M-17,191C-17.549,191 -18,191.451 -18,192C-18,192.549 -17.549,193 -17,193L-15,193C-14.451,193 -14,192.549 -14,192C-14,191.451 -14.451,191 -15,191L-17,191ZM2,200C2,199.451 2.451,199 3,199L5,199C5.549,199 6,199.451 6,200C6,200.549 5.549,201 5,201L3,201C2.451,201 2,200.549 2,200ZM-12,205C-12.549,205 -13,205.451 -13,206C-13,206.549 -12.549,207 -12,207L-10,207C-9.451,207 -9,206.549 -9,206C-9,205.451 -9.451,205 -10,205L-12,205ZM-37,206C-37.549,206 -38,206.451 -38,207C-38,207.549 -37.549,208 -37,208L-35,208C-34.451,208 -34,207.549 -34,207C-34,206.451 -34.451,206 -35,206L-37,206ZM-32,210C-32.549,210 -33,210.451 -33,211C-33,211.549 -32.549,212 -32,212L-30,212C-29.451,212 -29,211.549 -29,211C-29,210.451 -29.451,210 -30,210L-32,210ZM-23,210C-23,209.451 -22.549,209 -22,209L-20,209C-19.451,209 -19,209.451 -19,210C-19,210.549 -19.451,211 -20,211L-22,211C-22.549,211 -23,210.549 -23,210ZM-8,211C-8,210.451 -7.549,210 -7,210L-5,210C-4.451,210 -4,210.451 -4,211C-4,211.549 -4.451,212 -5,212L-7,212C-7.549,212 -8,211.549 -8,211ZM4,209C3.451,209 3,209.451 3,210C3,210.549 3.451,211 4,211L6,211C6.549,211 7,210.549 7,210C7,209.451 6.549,209 6,209L4,209ZM-7,195C-7,194.451 -6.549,194 -6,194L-4,194C-3.451,194 -3,194.451 -3,195C-3,195.549 -3.451,196 -4,196L-6,196C-6.549,196 -7,195.549 -7,195ZM-26,195C-26.549,195 -27,195.451 -27,196C-27,196.549 -26.549,197 -26,197L-24,197C-23.451,197 -23,196.549 -23,196C-23,195.451 -23.451,195 -24,195L-26,195ZM-20,200C-20,199.451 -19.549,199 -19,199L-17,199C-16.451,199 -16,199.451 -16,200C-16,200.549 -16.451,201 -17,201L-19,201C-19.549,201 -20,200.549 -20,200ZM-45,215C-45,214.53 -44.99,214.06 -44.97,213.6C-46.808,212.815 -48.006,211 -48.006,209.002C-48.006,207.74 -47.528,206.525 -46.67,205.6C-47.523,203.66 -46.689,201.362 -44.79,200.42C-44.926,199.96 -44.995,199.482 -44.995,199.002C-44.995,196.784 -43.52,194.819 -41.39,194.2C-41.022,193.709 -40.513,193.342 -39.93,193.15C-39.518,190.762 -37.426,189 -35.003,189C-33.991,189 -33.003,189.307 -32.17,189.88C-26.888,186.049 -20.525,183.989 -14,184C-7.21,184 -0.94,186.18 4.17,189.88C5.003,189.307 5.991,189 7.003,189C9.426,189 11.518,190.762 11.93,193.15C12.516,193.341 13.03,193.707 13.4,194.2C15.53,194.819 17.005,196.784 17.005,199.002C17.005,199.482 16.936,199.96 16.8,200.42C18.691,201.369 19.519,203.662 18.67,205.6C19.537,206.523 20.02,207.743 20.02,209.009C20.02,211.01 18.814,212.825 16.97,213.6C16.99,214.06 17,214.53 17,215L17,216L-45,216L-45,215L-45,215ZM-44.17,207.83C-44.446,209.007 -44.653,210.199 -44.79,211.4C-45.549,210.834 -45.996,209.942 -45.996,208.995C-45.996,208.348 -45.787,207.718 -45.4,207.2C-45.03,207.48 -44.62,207.69 -44.17,207.83ZM-42.68,203.22C-43.04,204.09 -43.36,204.98 -43.64,205.9C-44.454,205.628 -45.006,204.861 -45.006,204.003C-45.006,203.227 -44.554,202.518 -43.85,202.19C-43.52,202.59 -43.12,202.94 -42.68,203.22ZM-40.36,198.68C-40.9,199.54 -41.39,200.44 -41.85,201.36C-42.577,200.792 -43.002,199.919 -43.002,198.997C-43.002,198.106 -42.605,197.26 -41.92,196.69C-41.719,197.55 -41.147,198.279 -40.36,198.68L-40.36,198.68ZM-39.22,196.98C-38.87,196.48 -38.5,196 -38.12,195.52C-38.294,195.197 -38.633,194.994 -39,194.994C-39.549,194.994 -40,195.446 -40,195.994C-40,196.46 -39.675,196.868 -39.22,196.97L-39.22,196.98ZM-33.88,191.21C-34.91,192.07 -35.88,193 -36.78,193.98C-37.087,193.642 -37.466,193.379 -37.89,193.21C-37.535,191.909 -36.344,190.999 -34.996,190.999C-34.617,190.999 -34.242,191.07 -33.89,191.21L-33.88,191.21ZM8.78,193.98C7.88,193 6.91,192.08 5.88,191.21C6.234,191.068 6.613,190.995 6.995,190.995C8.345,190.995 9.537,191.907 9.89,193.21C9.47,193.38 9.094,193.644 8.79,193.98L8.78,193.98ZM10.12,195.52C10.5,196 10.87,196.48 11.22,196.97C11.675,196.868 12,196.46 12,195.994C12,195.446 11.549,194.994 11,194.994C10.633,194.994 10.294,195.197 10.12,195.52ZM13.85,201.36C13.39,200.44 12.9,199.54 12.35,198.68C13.141,198.281 13.716,197.552 13.92,196.69C14.605,197.26 15.002,198.106 15.002,198.997C15.002,199.919 14.577,200.792 13.85,201.36L13.85,201.36ZM15.65,205.89C15.36,204.99 15.05,204.09 14.68,203.22C15.12,202.94 15.52,202.59 15.85,202.19C16.549,202.519 16.998,203.226 16.998,203.999C16.998,204.85 16.455,205.612 15.65,205.89L15.65,205.89ZM16.79,211.4C16.65,210.19 16.44,209 16.17,207.83C16.62,207.69 17.03,207.48 17.4,207.2C17.792,207.719 18.004,208.352 18.004,209.002C18.004,209.946 17.557,210.836 16.8,211.4L16.79,211.4ZM15,214C14.5,198.451 1.572,185.933 -13.985,185.933C-29.542,185.933 -42.47,198.451 -42.97,214L15,214Z" style="fill:rgb(156,39,176);"/>
    </g>
</svg>
